<?xml version="1.0" encoding="utf-8" standalone="no"?>
<!DOCTYPE svg PUBLIC "-//W3C//DTD SVG 1.1//EN" "http://www.w3.org/Graphics/SVG/1.1/DTD/svg11.dtd">
<svg version="1.1" class="svg-plot" xmlns="http://www.w3.org/2000/svg" width="3975.8pt" height="3960pt" viewBox="-49.1 -15 1987.9 1980" preserveAspectRatio="xMidYMid"><rect x="-49.1" y="-15" width="1987.9" height="1980" class="svg-plot-bg"/><g class="svg-plot-group"><rect x="0" y="0" width="1920" height="1920" class="svg-plot-axis"/><line x1="0" x2="0" y1="0" y2="1920" class="svg-plot-major"/><line x1="0" x2="0" y1="0" y2="1920" class="svg-plot-minor"/><line x1="192" x2="192" y1="0" y2="1920" class="svg-plot-minor"/><line x1="384" x2="384" y1="0" y2="1920" class="svg-plot-minor"/><line x1="576" x2="576" y1="0" y2="1920" class="svg-plot-minor"/><line x1="768" x2="768" y1="0" y2="1920" class="svg-plot-minor"/><line x1="960" x2="960" y1="0" y2="1920" class="svg-plot-minor"/><line x1="1152" x2="1152" y1="0" y2="1920" class="svg-plot-minor"/><line x1="1344" x2="1344" y1="0" y2="1920" class="svg-plot-minor"/><line x1="1536" x2="1536" y1="0" y2="1920" class="svg-plot-minor"/><line x1="1728" x2="1728" y1="0" y2="1920" class="svg-plot-minor"/><line x1="1920" x2="1920" y1="0" y2="1920" class="svg-plot-minor"/><line x1="0" x2="1920" y1="1920" y2="1920" class="svg-plot-major"/><line x1="0" x2="1920" y1="1920" y2="1920" class="svg-plot-minor"/><line x1="0" x2="1920" y1="1728" y2="1728" class="svg-plot-minor"/><line x1="0" x2="1920" y1="1536" y2="1536" class="svg-plot-minor"/><line x1="0" x2="1920" y1="1344" y2="1344" class="svg-plot-minor"/><line x1="0" x2="1920" y1="1152" y2="1152" class="svg-plot-minor"/><line x1="0" x2="1920" y1="960" y2="960" class="svg-plot-minor"/><line x1="0" x2="1920" y1="768" y2="768" class="svg-plot-minor"/><line x1="0" x2="1920" y1="576" y2="576" class="svg-plot-minor"/><line x1="0" x2="1920" y1="384" y2="384" class="svg-plot-minor"/><line x1="0" x2="1920" y1="192" y2="192" class="svg-plot-minor"/><line x1="0" x2="1920" y1="0" y2="0" class="svg-plot-minor"/><clipPath id="clip0"><rect x="-0.75" y="-0.75" width="1921.5" height="1921.5"/></clipPath><g clip-path="url(#clip0)"><path class="svg-plot-line svg-plot-s1 svg-plot-d1" d="M 1007.68 1058.01 960.04 383.37 921.45 1048.71 1737.07 1089.81 1170.94 335.4 1185.92 1759.74 1650.13 1664.31 1546.54 1587.09 1107.31 1169.4 351.21 323.75 460.67 377.54 1702.1 1803.9 55.05 1153.43 940.61 908.4 322.42 1119.75 1879.07 658.83 1368.37 714.29 960.91 1359.39 904.49 1091.23 114.47 1890.26 1309.39 30.6 81.47 1599.04 137.18 1716.06 1001.57 1204.97 185.72 1539.61 1570.85 979.8 1569.69 1268.17 1387.08 92.87 287.74 152.96 1266.44 1818.86 995.7 503.31 1868.11 1403.29 1246.06 1108.16 1007.68 1058.01"/><path class="svg-plot-fill svg-plot-f0 svg-plot-h0" d="M0 0"/><path class="svg-plot-line svg-plot-s0 svg-plot-d0" d="M0 0"/><g><g class="svg-plot-dot"><circle cx="1007.68" cy="1058.01" r="6" class="svg-plot-fill svg-plot-f0 svg-plot-h0 svg-plot-cmap" style="fill:#290E02"/><circle cx="1007.68" cy="1058.01" r="6" class="svg-plot-line svg-plot-s0 svg-plot-cmap" style="stroke:#290E02"/></g></g></g></g><g class="svg-plot-group"><line x1="0" x2="0" y1="1920" y2="1924" class="svg-plot-tick"/><line x1="0" x2="0" y1="1920" y2="1924" class="svg-plot-tick"/><line x1="192" x2="192" y1="1920" y2="1924" class="svg-plot-tick"/><line x1="384" x2="384" y1="1920" y2="1924" class="svg-plot-tick"/><line x1="576" x2="576" y1="1920" y2="1924" class="svg-plot-tick"/><line x1="768" x2="768" y1="1920" y2="1924" class="svg-plot-tick"/><line x1="960" x2="960" y1="1920" y2="1924" class="svg-plot-tick"/><line x1="1152" x2="1152" y1="1920" y2="1924" class="svg-plot-tick"/><line x1="1344" x2="1344" y1="1920" y2="1924" class="svg-plot-tick"/><line x1="1536" x2="1536" y1="1920" y2="1924" class="svg-plot-tick"/><line x1="1728" x2="1728" y1="1920" y2="1924" class="svg-plot-tick"/><line x1="1920" x2="1920" y1="1920" y2="1924" class="svg-plot-tick"/><line x1="0" x2="-4" y1="1920" y2="1920" class="svg-plot-tick"/><line x1="0" x2="-4" y1="1920" y2="1920" class="svg-plot-tick"/><line x1="0" x2="-4" y1="1728" y2="1728" class="svg-plot-tick"/><line x1="0" x2="-4" y1="1536" y2="1536" class="svg-plot-tick"/><line x1="0" x2="-4" y1="1344" y2="1344" class="svg-plot-tick"/><line x1="0" x2="-4" y1="1152" y2="1152" class="svg-plot-tick"/><line x1="0" x2="-4" y1="960" y2="960" class="svg-plot-tick"/><line x1="0" x2="-4" y1="768" y2="768" class="svg-plot-tick"/><line x1="0" x2="-4" y1="576" y2="576" class="svg-plot-tick"/><line x1="0" x2="-4" y1="384" y2="384" class="svg-plot-tick"/><line x1="0" x2="-4" y1="192" y2="192" class="svg-plot-tick"/><line x1="0" x2="-4" y1="0" y2="0" class="svg-plot-tick"/><text class="svg-plot-label svg-plot-t" x="0" y="0" transform="rotate(-90) translate(-959 -34.1)">Y-Axis</text><text class="svg-plot-value" style="text-anchor:end" x="-9" y="-1">100</text><text class="svg-plot-value" style="text-anchor:end" x="-9" y="191">90</text><text class="svg-plot-value" style="text-anchor:end" x="-9" y="383">80</text><text class="svg-plot-value" style="text-anchor:end" x="-9" y="575">70</text><text class="svg-plot-value" style="text-anchor:end" x="-9" y="767">60</text><text class="svg-plot-value" style="text-anchor:end" x="-9" y="959">50</text><text class="svg-plot-value" style="text-anchor:end" x="-9" y="1151">40</text><text class="svg-plot-value" style="text-anchor:end" x="-9" y="1343">30</text><text class="svg-plot-value" style="text-anchor:end" x="-9" y="1535">20</text><text class="svg-plot-value" style="text-anchor:end" x="-9" y="1727">10</text><text class="svg-plot-value" style="text-anchor:end" x="-9" y="1919">0</text><text class="svg-plot-value" style="text-anchor:end" x="-9" y="1919">0</text><text class="svg-plot-label svg-plot-t" x="960" y="1949">X-Axis</text><text class="svg-plot-value" x="1920" y="1933">100</text><text class="svg-plot-value" x="1728" y="1933">90</text><text class="svg-plot-value" x="1536" y="1933">80</text><text class="svg-plot-value" x="1344" y="1933">70</text><text class="svg-plot-value" x="1152" y="1933">60</text><text class="svg-plot-value" x="960" y="1933">50</text><text class="svg-plot-value" x="768" y="1933">40</text><text class="svg-plot-value" x="576" y="1933">30</text><text class="svg-plot-value" x="384" y="1933">20</text><text class="svg-plot-value" x="192" y="1933">10</text><text class="svg-plot-value" x="0" y="1933">0</text><text class="svg-plot-value" x="0" y="1933">0</text><use href="#svg-plot-marker0" class="svg-plot-f1 svg-plot-s1" transform="translate(1007.68 1058.01)"/><use href="#svg-plot-marker0" class="svg-plot-f1 svg-plot-s1" transform="translate(960.043 383.365)"/><use href="#svg-plot-marker0" class="svg-plot-f1 svg-plot-s1" transform="translate(921.451 1048.71)"/><use href="#svg-plot-marker0" class="svg-plot-f1 svg-plot-s1" transform="translate(1737.07 1089.81)"/><use href="#svg-plot-marker0" class="svg-plot-f1 svg-plot-s1" transform="translate(1170.94 335.398)"/><use href="#svg-plot-marker0" class="svg-plot-f1 svg-plot-s1" transform="translate(1185.92 1759.74)"/><use href="#svg-plot-marker0" class="svg-plot-f1 svg-plot-s1" transform="translate(1650.13 1664.31)"/><use href="#svg-plot-marker0" class="svg-plot-f1 svg-plot-s1" transform="translate(1546.54 1587.09)"/><use href="#svg-plot-marker0" class="svg-plot-f1 svg-plot-s1" transform="translate(1107.31 1169.4)"/><use href="#svg-plot-marker0" class="svg-plot-f1 svg-plot-s1" transform="translate(351.211 323.751)"/><use href="#svg-plot-marker0" class="svg-plot-f1 svg-plot-s1" transform="translate(460.669 377.54)"/><use href="#svg-plot-marker0" class="svg-plot-f1 svg-plot-s1" transform="translate(1702.1 1803.9)"/><use href="#svg-plot-marker0" class="svg-plot-f1 svg-plot-s1" transform="translate(55.0544 1153.43)"/><use href="#svg-plot-marker0" class="svg-plot-f1 svg-plot-s1" transform="translate(940.611 908.398)"/><use href="#svg-plot-marker0" class="svg-plot-f1 svg-plot-s1" transform="translate(322.42 1119.75)"/><use href="#svg-plot-marker0" class="svg-plot-f1 svg-plot-s1" transform="translate(1879.07 658.829)"/><use href="#svg-plot-marker0" class="svg-plot-f1 svg-plot-s1" transform="translate(1368.37 714.291)"/><use href="#svg-plot-marker0" class="svg-plot-f1 svg-plot-s1" transform="translate(960.906 1359.39)"/><use href="#svg-plot-marker0" class="svg-plot-f1 svg-plot-s1" transform="translate(904.49 1091.23)"/><use href="#svg-plot-marker0" class="svg-plot-f1 svg-plot-s1" transform="translate(114.468 1890.26)"/><use href="#svg-plot-marker0" class="svg-plot-f1 svg-plot-s1" transform="translate(1309.39 30.5977)"/><use href="#svg-plot-marker0" class="svg-plot-f1 svg-plot-s1" transform="translate(81.4678 1599.04)"/><use href="#svg-plot-marker0" class="svg-plot-f1 svg-plot-s1" transform="translate(137.175 1716.06)"/><use href="#svg-plot-marker0" class="svg-plot-f1 svg-plot-s1" transform="translate(1001.57 1204.97)"/><use href="#svg-plot-marker0" class="svg-plot-f1 svg-plot-s1" transform="translate(185.722 1539.61)"/><use href="#svg-plot-marker0" class="svg-plot-f1 svg-plot-s1" transform="translate(1570.85 979.8)"/><use href="#svg-plot-marker0" class="svg-plot-f1 svg-plot-s1" transform="translate(1569.69 1268.17)"/><use href="#svg-plot-marker0" class="svg-plot-f1 svg-plot-s1" transform="translate(1387.08 92.8695)"/><use href="#svg-plot-marker0" class="svg-plot-f1 svg-plot-s1" transform="translate(287.742 152.962)"/><use href="#svg-plot-marker0" class="svg-plot-f1 svg-plot-s1" transform="translate(1266.44 1818.86)"/><use href="#svg-plot-marker0" class="svg-plot-f1 svg-plot-s1" transform="translate(995.702 503.312)"/><use href="#svg-plot-marker0" class="svg-plot-f1 svg-plot-s1" transform="translate(1868.11 1403.29)"/><use href="#svg-plot-marker0" class="svg-plot-f1 svg-plot-s1" transform="translate(1246.06 1108.16)"/></g><defs><g id="svg-plot-marker0" class="svg-plot-marker"><circle cx="0" cy="0" r="1" stroke="none"/></g><g id="svg-plot-marker1" class="svg-plot-marker"><path d="M0 0.9 -0.9 0 0 -0.9 0.9 0Z" fill="#FFFA" stroke-linejoin="miter" stroke-width="0.5"/></g><g id="svg-plot-marker2" class="svg-plot-marker"><path fill="none" d="M0 -1.2 0 1.2 M -1.2 0 1.2 0" stroke-width="0.6"/></g><g id="svg-plot-marker3" class="svg-plot-marker"><circle cx="0" cy="0" fill="#FFFA" r="0.82" stroke-width="0.55"/></g><g id="svg-plot-marker4" class="svg-plot-marker"><path stroke="none" d="M0 -1.25 1.25 0.9 -1.25 0.9Z"/></g><mask id="svg-plot-hatch1"><rect x="-2765" y="-2765" width="5530" height="5530" fill="url(#svg-plot-hatch1-pattern)" style="transform:rotate(-50deg)"/></mask><pattern patternUnits="userSpaceOnUse" id="svg-plot-hatch1-pattern" class="svg-plot-hatch" x="0" y="0" width="10" height="3"><line x1="-1" x2="11" y1="1.5" y2="1.5" stroke="#FFF" fill="none"/><rect x="-1" y="-1" width="12" height="12" fill="#FFF2" stroke="none"/></pattern><mask id="svg-plot-hatch2"><rect x="-2765" y="-2765" width="5530" height="5530" fill="url(#svg-plot-hatch2-pattern)" style="transform:rotate(30deg)"/></mask><pattern patternUnits="userSpaceOnUse" id="svg-plot-hatch2-pattern" class="svg-plot-hatch" x="0" y="0" width="10" height="2.4"><line x1="-1" x2="11" y1="1.2" y2="1.2" stroke="#FFF" fill="none"/><rect x="-1" y="-1" width="12" height="12" fill="#FFF2" stroke="none"/></pattern><mask id="svg-plot-hatch3"><rect x="-2765" y="-2765" width="5530" height="5530" fill="url(#svg-plot-hatch3-pattern)" style="transform:rotate(8deg)"/><rect x="-2765" y="-2765" width="5530" height="5530" fill="url(#svg-plot-hatch3-pattern)" style="transform:rotate(93deg)"/></mask><pattern patternUnits="userSpaceOnUse" id="svg-plot-hatch3-pattern" class="svg-plot-hatch" x="0" y="0" width="10" height="3"><line x1="-1" x2="11" y1="1.5" y2="1.5" stroke="#FFF" fill="none"/><rect x="-1" y="-1" width="12" height="12" fill="#FFF2" stroke="none"/></pattern></defs><style>.svg-plot{stroke-linecap:butt;stroke-linejoin:round;}.svg-plot-bg{fill:#FFF;stroke:none;}.svg-plot-axis{stroke:none;fill:#FFFFFFD9;}.svg-plot-legend{stroke:none;fill:#FFFFFFE4;}.svg-plot-line{stroke:blue;fill:none;stroke-width:1.5px;stroke-linejoin:round;}.svg-plot-fill{stroke:none;opacity:0.28;}.svg-plot-dot .svg-plot-fill{opacity:0.5;}.svg-plot-major{stroke:#000;stroke-width:1px;stroke-linecap:square;fill:none;}.svg-plot-minor{stroke:#0000004D;stroke-width:0.5px;stroke-dasharray:0.5 1.5;stroke-linecap:round;fill:none;}.svg-plot-tick{stroke:#000;fill:none;stroke-width:1px;stroke-linecap:butt;}.svg-plot-value,.svg-plot-label,.svg-plot-title{font-family:Arial,sans-serif;fill:#000;stroke:#FFFFFF48;stroke-width:2.5px;paint-order:stroke fill;text-anchor:middle;dominant-baseline:central;alignment-baseline:baseline;}.svg-plot-label{font-size:12px;}.svg-plot-value{font-size:10px;}.svg-plot-title{font-size:13px;}.svg-plot-hatch{stroke:#FFF;stroke-width:1px;}.svg-plot-marker{transform:scale(3.25);}.svg-plot-s{stroke:#000;}.svg-plot-f,.svg-plot-t{fill:#000;}.svg-plot-s0{stroke:#0073E6}.svg-plot-f0,.svg-plot-t0{fill:#0073E6}.svg-plot-s1{stroke:#CC0000}.svg-plot-f1,.svg-plot-t1{fill:#CC0000}.svg-plot-s2{stroke:#00B300}.svg-plot-f2,.svg-plot-t2{fill:#00B300}.svg-plot-s3{stroke:#806600}.svg-plot-f3,.svg-plot-t3{fill:#806600}.svg-plot-s4{stroke:#E69900}.svg-plot-f4,.svg-plot-t4{fill:#E69900}.svg-plot-s5{stroke:#CC00CC}.svg-plot-f5,.svg-plot-t5{fill:#CC00CC}.svg-plot-d0{stroke-width:1.35px}.svg-plot-d1{stroke-dasharray:1.8 1.8}.svg-plot-d2{stroke-dasharray:4.2 2.4}.svg-plot-d3{stroke-dasharray:7.5 6}.svg-plot-d4{stroke-dasharray:6 1.5 1.5 1.5 1.5 1.5}.svg-plot-d5{stroke-dasharray:15 4.5}.svg-plot-d6{stroke-dasharray:6 3 1.5 3}.svg-plot-h0{opacity:0.14}.svg-plot-h1{mask:url(#svg-plot-hatch1)}.svg-plot-h2{mask:url(#svg-plot-hatch2)}.svg-plot-h3{mask:url(#svg-plot-hatch3)}#svg-plot-hatch2-pattern{stroke-width:0.9px}#svg-plot-hatch3-pattern{stroke-width:0.7px}</style></svg>